<svg xmlns="http://www.w3.org/2000/svg" viewBox="0 0 376.08 386.17"><defs><style>.cls-1{fill:#fefefe;fill-rule:evenodd;}</style></defs><g id="Layer_2" data-name="Layer 2"><g id="Layer_1-2" data-name="Layer 1"><path class="cls-1" d="M340.6,0,111,0C86.44,0,61.68,20.06,56,44.66L1.17,281.22C-4.5,305.82,11,326,35.63,326l74.43.14-13.8,60,122.8-60,46.14-.1c24.6,0,49.35-20.23,55-44.83L374.91,44.69C380.57,20.1,365.2,0,340.6,0ZM249.22,219q-32.43,30.21-80.89,30.29H86.94L128,71.75h71.4c25.05,0,45.19,6.72,60.09,20,14.9,13.1,22.27,31.28,22.27,54.2C281.8,174.59,271,198.82,249.22,219Z"/><path class="cls-1" d="M218.92,124q-10.06-9.33-28.49-9.33H169l-20.8,90.55h16.38a68.69,68.69,0,0,0,45-16.05c13.1-10.64,19.48-23.91,19.48-39.79C229.07,138.56,225.8,130.21,218.92,124Z"/></g></g></svg>