<svg xmlns="http://www.w3.org/2000/svg" viewBox="0 0 290.06 118.77"><defs><style>.cls-1{fill:#0d0d0d;fill-rule:evenodd;}</style></defs><g id="Layer_2" data-name="Layer 2"><g id="Layer_1-2" data-name="Layer 1"><path class="cls-1" d="M11,100.17H122.06l-4.28,18.6,38.08-18.6H256c7.56,0,15.16-6.21,16.9-13.77L289.7,13.72C291.44,6.16,286.71,0,279.16,0h-245C26.56,0,19,6.16,17.21,13.72L.36,86.4C-1.38,94,3.39,100.17,11,100.17ZM170.53,34.9a17.82,17.82,0,0,0-11.24,3.63l.55-2.44H144.73L131.21,94.56l16.95-8.31,3.38-14.71c2.39,4.22,6.41,6.36,12.13,6.36a21.38,21.38,0,0,0,15.16-6,26,26,0,0,0,7.91-15.51c1-6.37,0-11.54-3.13-15.56s-7.46-6-13.08-6Zm32,41.81L216,18.79H200.91L187.48,76.71ZM137.17,36.09h-15l-4.67,20.44a13.15,13.15,0,0,1-3.29,6,6.76,6.76,0,0,1-5.07,2.14,4.54,4.54,0,0,1-3.92-1.74,5.4,5.4,0,0,1-.5-4.67l5.07-22.13H94.67L89,60.45c-1.09,5.12-.5,9.3,1.89,12.53S97,77.9,102,77.9a16.37,16.37,0,0,0,11.59-4.72l-.8,3.53h15Zm-98-13.27L26.71,76.71h24.7q14.7,0,24.56-9.2a29,29,0,0,0,9.9-22.17c0-7-2.24-12.48-6.76-16.46s-10.64-6.06-18.25-6.06ZM45.3,63.34l6.31-27.5h6.52c3.72,0,6.61.95,8.65,2.84a9.81,9.81,0,0,1,3.08,7.7,14.9,14.9,0,0,1-5.92,12.08,20.8,20.8,0,0,1-13.67,4.88ZM264.24,36H249.08l-1.14,5c-2.34-4.17-6.37-6.21-12.09-6.21a21.38,21.38,0,0,0-15.16,6,26,26,0,0,0-7.95,15.56c-1.05,6.36,0,11.58,3.08,15.56s7.46,6,13.12,6a18,18,0,0,0,11.34-3.63l-.55,2.44H254.8ZM227.7,56.33a11.23,11.23,0,0,1,3.38-6.42,8.87,8.87,0,0,1,6.32-2.53A6.56,6.56,0,0,1,242.91,50a8.06,8.06,0,0,1,1.4,6.37,10.74,10.74,0,0,1-3.43,6.41,9.17,9.17,0,0,1-6.37,2.58A6.43,6.43,0,0,1,229,62.79a8.17,8.17,0,0,1-1.29-6.46Zm-65.62,9a6.51,6.51,0,0,1-5.42-2.58,8.09,8.09,0,0,1-1.39-6.36A10.18,10.18,0,0,1,158.65,50,9.22,9.22,0,0,1,165,47.43,6.44,6.44,0,0,1,170.53,50a8.17,8.17,0,0,1,1.19,6.47,11.05,11.05,0,0,1-3.28,6.41,8.9,8.9,0,0,1-6.36,2.53Z"/></g></g></svg>