<svg xmlns="http://www.w3.org/2000/svg" viewBox="0 0 290.06 118.77"><defs><style>.cls-1{fill:#fefefe;fill-rule:evenodd;}</style></defs><g id="Layer_2" data-name="Layer 2"><g id="Layer_1-2" data-name="Layer 1"><path class="cls-1" d="M11,100.12H122.06l-4.28,18.65,38.08-18.65H256c7.56,0,15.16-6.16,16.9-13.72L289.7,13.72C291.44,6.16,286.71,0,279.16,0h-245C26.56,0,19,6.16,17.21,13.72L.36,86.4C-1.38,94,3.39,100.12,11,100.12ZM170.53,34.9a18.08,18.08,0,0,0-11.24,3.58l.55-2.39H144.73L131.21,94.56l16.95-8.31,3.38-14.71c2.39,4.22,6.41,6.31,12.13,6.31a21.34,21.34,0,0,0,15.16-5.91,26,26,0,0,0,7.91-15.51c1-6.37,0-11.59-3.13-15.56s-7.46-6-13.08-6Zm32,41.81L216,18.79H200.91L187.48,76.71ZM137.17,36.09h-15l-4.67,20.43a13.41,13.41,0,0,1-3.29,6,6.76,6.76,0,0,1-5.07,2.14,4.45,4.45,0,0,1-3.92-1.79,5.29,5.29,0,0,1-.5-4.62l5.07-22.13H94.67L89,60.45c-1.09,5.07-.5,9.25,1.89,12.53S97,77.9,102,77.9a16.21,16.21,0,0,0,11.59-4.77l-.8,3.58h15Zm-98-13.27L26.71,76.71h24.7q14.7,0,24.56-9.2a29,29,0,0,0,9.9-22.17c0-7-2.24-12.48-6.76-16.51s-10.64-6-18.25-6ZM45.3,63.34l6.31-27.5h6.52c3.72,0,6.61.95,8.65,2.84a9.74,9.74,0,0,1,3.08,7.7,14.9,14.9,0,0,1-5.92,12.08,21.07,21.07,0,0,1-13.67,4.88ZM264.24,36H249.08l-1.14,5c-2.34-4.12-6.37-6.16-12.09-6.16a21.38,21.38,0,0,0-15.16,6,26,26,0,0,0-7.95,15.51c-1.05,6.41,0,11.63,3.08,15.61s7.46,6,13.12,6a18,18,0,0,0,11.34-3.63l-.55,2.44H254.8ZM227.7,56.28a11.25,11.25,0,0,1,3.38-6.37,8.87,8.87,0,0,1,6.32-2.53,6.65,6.65,0,0,1,5.51,2.53,8.15,8.15,0,0,1,1.4,6.37,10.87,10.87,0,0,1-3.43,6.46,9.17,9.17,0,0,1-6.37,2.58A6.43,6.43,0,0,1,229,62.79a8.29,8.29,0,0,1-1.29-6.51Zm-65.62,9a6.47,6.47,0,0,1-5.42-2.53,8.14,8.14,0,0,1-1.39-6.36A10.18,10.18,0,0,1,158.65,50,9.22,9.22,0,0,1,165,47.43,6.44,6.44,0,0,1,170.53,50a8.17,8.17,0,0,1,1.19,6.47,10.91,10.91,0,0,1-3.28,6.36,8.9,8.9,0,0,1-6.36,2.53Z"/></g></g></svg>